<svg xmlns="http://www.w3.org/2000/svg" viewBox="0 0 23 23"><path d="M1 1h7v7h-7zM9 1h1v2h-1zM11 1h2v2h1v2h-1v-1h-1v-1h-1zM15 1h7v7h-7zM2 2v5h5v-5zM16 2v5h5v-5zM3 3h3v3h-3zM17 3h3v3h-3zM9 4h2v2h1v-1h1v1h1v4h1v1h1v-1h2v-1h1v2h2v-1h-1v-1h2v3h-3v1h-1v-2h-1v1h-3v-1h-1v2h-1v-1h-1v-2h-1v-1h-1v-2h1v1h1v1h1v-1h1v-1h-1v1h-1v-1h-1v-2h-1zM1 9h1v3h1v1h-2zM3 9h2v2h-1v-1h-1zM6 9h3v1h-3zM15 9h1v1h-1zM9 10h1v1h-1zM3 11h1v1h-1zM5 11h1v1h1v1h-2zM7 11h1v1h-1zM8 12h1v1h1v1h3v1h1v-1h1v-1h1v2h-1v1h-3v-1h-1v1h1v2h1v1h-1v1h-1v1h-1v-1h-1v-2h1v1h1v-1h-1v-1h-1v-3h-2v-1h1zM10 12h1v1h-1zM3 13h1v1h-1zM13 13h1v1h-1zM17 13h1v3h-2v-1h1zM20 13h1v2h-1zM1 15h7v7h-7zM2 16v5h5v-5zM18 16h3v1h-1v1h-1v1h1v1h-2v-2h-1v-1h1zM3 17h3v3h-3zM13 17h1v1h-1zM15 17h1v3h-1zM20 18h1v1h-1zM13 19h1v1h-1zM14 20h1v2h-1zM17 20h1v2h-2v-1h1zM21 20h1v1h-1zM9 21h1v1h-1zM11 21h1v1h-1zM19 21h1v1h-1z"/></svg>